<svg width="108" height="57" viewBox="0 0 108 57" fill="none" xmlns="http://www.w3.org/2000/svg">
<g clip-path="url(#clip0_78_6)">
<path d="M24.0259 56.277V51.275L23.9279 51.318C22.8005 51.8638 21.5741 52.1751 20.3229 52.233C19.0225 52.3349 17.7301 51.9539 16.6929 51.163C15.9522 50.5912 15.4015 49.8091 15.1129 48.919C14.7945 47.9491 14.7577 46.9089 15.0069 45.919C15.2382 44.9065 15.8053 44.0022 16.6159 43.353C17.3348 42.7517 18.2132 42.373 19.1439 42.263C20.7888 42.0806 22.4508 42.3921 23.9179 43.158L24.0259 43.214V38.184L23.7979 38.123C22.329 37.6512 20.7868 37.4492 19.2459 37.527C17.8425 37.563 16.4604 37.8792 15.1809 38.457C13.8892 39.0485 12.7503 39.9284 11.8519 41.029C10.4866 42.7567 9.72884 44.8863 9.69594 47.0881C9.66304 49.2899 10.3568 51.4412 11.6699 53.209C12.9986 54.9087 14.864 56.1083 16.9619 56.612C19.1729 57.15 21.4899 57.068 23.6589 56.378L24.0259 56.277" fill="#111111"/>
<path d="M73.5259 56.277V51.275L73.4279 51.318C72.3005 51.8638 71.0741 52.1751 69.8229 52.233C68.5225 52.3349 67.2301 51.9539 66.1929 51.163C65.4522 50.5912 64.9015 49.8091 64.6129 48.919C64.2945 47.9491 64.2577 46.9089 64.5069 45.919C64.7382 44.9065 65.3053 44.0022 66.1159 43.353C66.8348 42.7517 67.7132 42.373 68.6439 42.263C70.2888 42.0806 71.9508 42.3921 73.4179 43.158L73.5259 43.214V38.184L73.2979 38.123C71.829 37.6512 70.2868 37.4492 68.7459 37.527C67.3425 37.563 65.9604 37.8792 64.6809 38.457C63.3892 39.0485 62.2503 39.9284 61.3519 41.029C59.9866 42.7567 59.2288 44.8863 59.1959 47.0881C59.163 49.2899 59.8568 51.4412 61.1699 53.209C62.4986 54.9087 64.364 56.1083 66.4619 56.612C68.6729 57.15 70.9899 57.068 73.1589 56.378L73.5259 56.277" fill="#111111"/>
<path fill-rule="evenodd" clip-rule="evenodd" d="M41.6899 52.1246L41.6709 56.4326L41.9859 56.4866C42.9749 56.6716 43.9729 56.7996 44.9759 56.8716C45.8541 56.9529 46.7372 56.97 47.6179 56.9226C48.4599 56.8626 49.2929 56.7046 50.0979 56.4546C51.0439 56.1872 51.9213 55.7196 52.6709 55.0836C53.3456 54.5074 53.8614 53.7678 54.1689 52.9356C54.7053 51.5422 54.6946 49.9974 54.1389 48.6116C53.8466 47.8924 53.3861 47.2539 52.7959 46.7496C52.2254 46.2355 51.5546 45.845 50.8259 45.6026L47.5759 44.3966C47.1877 44.2316 46.8725 43.9313 46.6889 43.5516C46.6182 43.3956 46.5847 43.2254 46.591 43.0543C46.5972 42.8833 46.6431 42.7159 46.7249 42.5656C46.7832 42.4588 46.8562 42.3609 46.9419 42.2746C47.081 42.1325 47.2433 42.0151 47.4219 41.9276C47.7849 41.7476 48.1769 41.6346 48.5799 41.5906C49.2676 41.4914 49.9665 41.4988 50.6519 41.6126C51.4619 41.7006 52.2649 41.8436 53.0539 42.0426L53.2219 42.0796V38.1056L52.9119 38.0386C52.1065 37.8458 51.2904 37.7006 50.4679 37.6036C49.4019 37.4612 48.3221 37.4565 47.2549 37.5896C45.903 37.7134 44.617 38.2307 43.5559 39.0776C42.8366 39.6422 42.2894 40.3966 41.9759 41.2556C41.5042 42.5642 41.5031 43.9963 41.9729 45.3056C42.2149 45.9556 42.6029 46.5426 43.1089 47.0196C43.5459 47.4416 44.0409 47.7996 44.5789 48.0846C45.2869 48.4646 46.0369 48.7596 46.8139 48.9626C47.0709 49.0396 47.3259 49.1206 47.5799 49.2056L47.9649 49.3466L48.0749 49.3916C48.4549 49.5276 48.8009 49.7416 49.0929 50.0196C49.2949 50.2096 49.4509 50.4426 49.5479 50.7026C49.6079 50.9396 49.6089 51.1876 49.5509 51.4256C49.4292 51.8088 49.1621 52.1291 48.8069 52.3176C48.42 52.5188 48.0005 52.6498 47.5679 52.7046C46.9332 52.8054 46.2895 52.8379 45.6479 52.8016C44.8065 52.7385 43.9695 52.6269 43.1409 52.4676C42.7079 52.3776 42.2769 52.2776 41.8499 52.1646L41.6899 52.1246ZM30.5459 56.6066H35.2759V37.8456H30.5459V56.6066ZM85.3049 43.3856C85.8104 42.9738 86.3925 42.6663 87.0176 42.4809C87.6426 42.2954 88.2982 42.2357 88.9465 42.3051C89.5948 42.3746 90.2229 42.5718 90.7945 42.8855C91.3661 43.1991 91.8699 43.6229 92.2767 44.1324C92.6835 44.6419 92.9853 45.227 93.1646 45.8538C93.344 46.4807 93.3973 47.1368 93.3216 47.7844C93.2458 48.432 93.0424 49.0581 92.7232 49.6266C92.404 50.1951 91.9753 50.6947 91.4619 51.0966C90.4373 51.8884 89.1424 52.2457 87.8566 52.0914C86.5709 51.937 85.3974 51.2834 84.5893 50.2715C83.7812 49.2595 83.4033 47.9705 83.5372 46.6825C83.6711 45.3944 84.306 44.2097 85.3049 43.3856ZM78.4379 47.2346C78.4604 48.6989 78.8085 50.1399 79.457 51.453C80.1054 52.7662 81.038 53.9185 82.187 54.8266C83.336 55.7346 84.6727 56.3756 86.1001 56.703C87.5276 57.0304 89.01 57.0361 90.4399 56.7196C92.3605 56.358 94.1256 55.4206 95.5007 54.0319C96.8758 52.6432 97.7958 50.8689 98.1384 48.9449C98.481 47.0208 98.2301 45.038 97.4189 43.26C96.6077 41.482 95.2746 39.9929 93.5969 38.9906C92.1068 38.0683 90.3994 37.5567 88.6477 37.5075C86.896 37.4583 85.1625 37.8733 83.623 38.7105C82.0836 39.5476 80.793 40.7771 79.8821 42.2742C78.9713 43.7712 78.4727 45.4826 78.4369 47.2346" fill="#111111"/>
<path d="M0 22.769C0.0336736 23.209 0.190662 23.6306 0.452965 23.9855C0.715269 24.3403 1.07227 24.6141 1.48303 24.7754C1.8938 24.9367 2.34169 24.9789 2.77537 24.8973C3.20905 24.8157 3.61095 24.6135 3.935 24.314C4.369 23.911 4.635 23.359 4.679 22.769V17.569C4.66634 16.9569 4.4143 16.3741 3.97694 15.9457C3.53958 15.5173 2.95173 15.2773 2.3395 15.2773C1.72727 15.2773 1.13942 15.5173 0.702061 15.9457C0.264698 16.3741 0.0126556 16.9569 0 17.569L0 22.769Z" fill="#111111"/>
<path d="M12.9502 22.7687C12.995 23.3588 13.261 23.9102 13.6948 24.3127C14.1286 24.7152 14.6984 24.9391 15.2902 24.9397C15.882 24.9396 16.4519 24.7158 16.8857 24.3132C17.3195 23.9106 17.585 23.3589 17.6292 22.7687V11.1117C17.6075 10.5057 17.3515 9.93181 16.9151 9.51079C16.4788 9.08977 15.8961 8.85449 15.2897 8.85449C14.6833 8.85449 14.1006 9.08977 13.6643 9.51079C13.2279 9.93181 12.9719 10.5057 12.9502 11.1117V22.7697" fill="#111111"/>
<path d="M25.832 27.4639C25.8744 28.0553 26.1393 28.6087 26.5732 29.0127C27.0072 29.4166 27.5781 29.6412 28.171 29.6412C28.7639 29.6412 29.3348 29.4166 29.7688 29.0127C30.2028 28.6087 30.4676 28.0553 30.51 27.4639V2.24889C30.4796 1.64904 30.2199 1.08379 29.7846 0.669966C29.3493 0.256147 28.7717 0.0253906 28.171 0.0253906C27.5704 0.0253906 26.9927 0.256147 26.5574 0.669966C26.1221 1.08379 25.8624 1.64904 25.832 2.24889V27.4639Z" fill="#111111"/>
<path d="M38.8252 22.7687C38.87 23.3588 39.136 23.9102 39.5698 24.3127C40.0036 24.7152 40.5734 24.9391 41.1652 24.9397C41.757 24.9396 42.3269 24.7158 42.7607 24.3132C43.1945 23.9106 43.46 23.3589 43.5042 22.7687V11.1117C43.4825 10.5057 43.2265 9.93181 42.7901 9.51079C42.3538 9.08977 41.7711 8.85449 41.1647 8.85449C40.5583 8.85449 39.9756 9.08977 39.5393 9.51079C39.1029 9.93181 38.8469 10.5057 38.8252 11.1117V22.7697" fill="#111111"/>
<path d="M51.75 22.769C51.7837 23.209 51.9407 23.6306 52.203 23.9855C52.4653 24.3403 52.8223 24.6141 53.233 24.7754C53.6438 24.9367 54.0917 24.9789 54.5254 24.8973C54.9591 24.8157 55.361 24.6135 55.685 24.314C56.119 23.911 56.385 23.359 56.429 22.769V17.569C56.4163 16.9569 56.1643 16.3741 55.7269 15.9457C55.2896 15.5173 54.7017 15.2773 54.0895 15.2773C53.4773 15.2773 52.8894 15.5173 52.4521 15.9457C52.0147 16.3741 51.7627 16.9569 51.75 17.569V22.769Z" fill="#111111"/>
<path d="M64.7002 22.7687C64.745 23.3588 65.011 23.9102 65.4448 24.3127C65.8786 24.7152 66.4484 24.9391 67.0402 24.9397C67.632 24.9396 68.2019 24.7158 68.6357 24.3132C69.0695 23.9106 69.335 23.3589 69.3792 22.7687V11.1117C69.3575 10.5057 69.1015 9.93181 68.6651 9.51079C68.2288 9.08977 67.6461 8.85449 67.0397 8.85449C66.4333 8.85449 65.8506 9.08977 65.4143 9.51079C64.9779 9.93181 64.7219 10.5057 64.7002 11.1117V22.7697" fill="#111111"/>
<path d="M77.582 27.4639C77.6244 28.0553 77.8893 28.6087 78.3232 29.0127C78.7572 29.4166 79.3281 29.6412 79.921 29.6412C80.5139 29.6412 81.0848 29.4166 81.5188 29.0127C81.9528 28.6087 82.2176 28.0553 82.26 27.4639V2.24889C82.2296 1.64904 81.9699 1.08379 81.5346 0.669966C81.0993 0.256147 80.5217 0.0253906 79.921 0.0253906C79.3204 0.0253906 78.7427 0.256147 78.3074 0.669966C77.8721 1.08379 77.6124 1.64904 77.582 2.24889V27.4639Z" fill="#111111"/>
<path d="M90.5752 22.7687C90.62 23.3588 90.886 23.9102 91.3198 24.3127C91.7536 24.7152 92.3234 24.9391 92.9152 24.9397C93.507 24.9396 94.0769 24.7158 94.5107 24.3132C94.9445 23.9106 95.21 23.3589 95.2542 22.7687V11.1117C95.2325 10.5057 94.9765 9.93181 94.5401 9.51079C94.1038 9.08977 93.5211 8.85449 92.9147 8.85449C92.3083 8.85449 91.7256 9.08977 91.2893 9.51079C90.8529 9.93181 90.5969 10.5057 90.5752 11.1117V22.7697" fill="#111111"/>
<path d="M103.375 22.769C103.409 23.209 103.566 23.6306 103.828 23.9855C104.09 24.3403 104.447 24.6141 104.858 24.7754C105.269 24.9367 105.717 24.9789 106.15 24.8973C106.584 24.8157 106.986 24.6135 107.31 24.314C107.744 23.911 108.01 23.359 108.054 22.769V17.569C108.041 16.9569 107.789 16.3741 107.352 15.9457C106.915 15.5173 106.327 15.2773 105.714 15.2773C105.102 15.2773 104.514 15.5173 104.077 15.9457C103.64 16.3741 103.388 16.9569 103.375 17.569V22.769Z" fill="#111111"/>
</g>
<defs>
<clipPath id="clip0_78_6">
<rect width="108" height="57" fill="white"/>
</clipPath>
</defs>
</svg>
