<svg xmlns="http://www.w3.org/2000/svg" width="1.17em" height="1em" viewBox="0 0 21 18"><!----><path fill="currentColor" d="M0 13.606h1.58v-9.62H0v9.62Zm5.622-6.97c-1.916 0-3.422 1.556-3.422 3.583 0 2.026 1.506 3.582 3.422 3.582 1.916 0 3.422-1.556 3.422-3.582 0-2.027-1.506-3.583-3.422-3.583Zm0 5.534c-1.012 0-1.818-.855-1.818-1.964 0-1.108.802-1.939 1.818-1.939s1.83.843 1.83 1.952c0 1.108-.802 1.95-1.83 1.95Zm7.39 3.836c-1.013 0-1.819-.843-1.819-1.939H9.585c0 2.03 1.507 3.583 3.423 3.583 1.915 0 3.422-1.557 3.422-3.583h-1.608c0 1.092-.802 1.939-1.818 1.939h.008Zm4.052-2.4h1.581V6.847h-1.58v6.76Zm.78-9.806c-.58 0-1.04.486-1.04 1.12 0 .636.455 1.11 1.04 1.11.583 0 1.062-.486 1.062-1.11 0-.622-.455-1.12-1.063-1.12ZM16.37 8.188V6.843h-2.223a3.262 3.262 0 00-1.136-.212c-1.916 0-3.423 1.557-3.423 3.583 0 2.026 1.507 3.583 3.423 3.583 1.915 0 3.422-1.557 3.422-3.583 0-.685-.172-1.357-.518-1.86l.456-.17v.004Zm-3.36 3.982c-1.012 0-1.818-.855-1.818-1.964 0-1.108.802-1.939 1.819-1.939 1.016 0 1.83.843 1.83 1.952 0 1.108-.803 1.95-1.83 1.95Zm6.316.805h.404v.087h-.16v.548h-.085v-.548h-.16v-.087Zm1.07 0v.631h-.085v-.423l-.176.29h-.058l-.175-.29v.423h-.086v-.63h.058l.23.385.23-.386h.062Z"></path><!----></svg>